<svg width="480" height="480" viewBox="0 0 480 480" fill="none" xmlns="http://www.w3.org/2000/svg">
<path fill-rule="evenodd" clip-rule="evenodd" d="M318.868 373.438C307.284 384.006 289.346 381.381 280.202 368.638L255.911 334.787C250.245 326.89 251.629 315.944 258.902 309.5C283.22 287.954 335.662 238.488 365.582 187.918C373.152 175.125 368.238 170.424 354.975 177.138C331.8 188.87 295.951 207.139 276.28 217.169C268.166 221.308 258.248 218.897 252.937 211.496L226.411 174.528C220.394 166.144 222.413 154.406 231.171 148.948C307.038 101.669 351.619 110.717 364.108 128.127L419.199 204.901C437.487 230.391 381.347 316.444 318.868 373.438Z" fill="white"/>
<path fill-rule="evenodd" clip-rule="evenodd" d="M318.868 373.438C307.284 384.006 289.346 381.381 280.202 368.638L255.911 334.787C250.245 326.89 251.629 315.944 258.902 309.5C283.22 287.954 335.662 238.488 365.582 187.918C373.152 175.125 368.238 170.424 354.975 177.138C331.8 188.87 295.951 207.139 276.28 217.169C268.166 221.308 258.248 218.897 252.937 211.496L226.411 174.528C220.394 166.144 222.413 154.406 231.171 148.948C307.038 101.669 351.619 110.717 364.109 128.127L419.199 204.901C437.487 230.391 381.347 316.444 318.868 373.438Z" fill="url(#paint0_linear_5_21)"/>
<path fill-rule="evenodd" clip-rule="evenodd" d="M318.868 373.438C307.284 384.006 289.346 381.381 280.202 368.638L255.911 334.787C250.245 326.89 251.629 315.944 258.902 309.5C283.22 287.954 335.662 238.488 365.582 187.918C373.152 175.125 368.238 170.424 354.975 177.138C331.8 188.87 295.951 207.139 276.28 217.169C268.166 221.308 258.248 218.897 252.937 211.496L226.411 174.528C220.394 166.144 222.413 154.406 231.171 148.948C307.038 101.669 351.619 110.717 364.109 128.127L419.199 204.901C437.487 230.391 381.347 316.444 318.868 373.438Z" fill="url(#paint1_linear_5_21)"/>
<path fill-rule="evenodd" clip-rule="evenodd" d="M160.842 106.563C172.429 95.9932 190.367 98.619 199.511 111.361L223.801 145.214C229.467 153.11 228.083 164.055 220.809 170.5C196.496 192.041 144.069 241.493 114.145 292.054C106.566 304.86 111.49 309.567 124.766 302.846C147.943 291.114 183.771 272.857 203.432 262.831C211.547 258.693 221.465 261.104 226.775 268.505L253.301 305.472C259.317 313.856 257.299 325.593 248.541 331.051C172.673 378.33 128.093 369.281 115.604 351.873L60.5089 275.098C42.2187 249.608 98.3686 163.557 160.842 106.563Z" fill="white"/>
<path fill-rule="evenodd" clip-rule="evenodd" d="M160.842 106.563C172.429 95.9932 190.367 98.619 199.511 111.361L223.801 145.214C229.467 153.11 228.083 164.055 220.809 170.5C196.496 192.041 144.069 241.493 114.145 292.054C106.566 304.86 111.49 309.567 124.766 302.846C147.943 291.114 183.771 272.857 203.432 262.831C211.547 258.693 221.465 261.104 226.775 268.505L253.301 305.472C259.317 313.856 257.299 325.593 248.541 331.051C172.673 378.33 128.093 369.281 115.604 351.873L60.5089 275.098C42.2187 249.608 98.3686 163.557 160.842 106.563Z" fill="url(#paint2_linear_5_21)"/>
<path fill-rule="evenodd" clip-rule="evenodd" d="M160.842 106.563C172.429 95.9932 190.367 98.619 199.511 111.361L223.801 145.214C229.467 153.11 228.083 164.055 220.809 170.5C196.496 192.041 144.069 241.493 114.145 292.054C106.566 304.86 111.49 309.567 124.766 302.846C147.943 291.114 183.771 272.857 203.432 262.831C211.547 258.693 221.465 261.104 226.775 268.505L253.301 305.472C259.317 313.856 257.299 325.593 248.541 331.051C172.673 378.33 128.093 369.281 115.604 351.873L60.5089 275.098C42.2187 249.608 98.3686 163.557 160.842 106.563Z" fill="url(#paint3_linear_5_21)"/>
<defs>
<linearGradient id="paint0_linear_5_21" x1="319.08" y1="114.074" x2="319.543" y2="337.898" gradientUnits="userSpaceOnUse">
<stop stop-color="#00B438"/>
<stop offset="1" stop-color="#5AD6A0"/>
</linearGradient>
<linearGradient id="paint1_linear_5_21" x1="250.858" y1="114.073" x2="255.078" y2="398.824" gradientUnits="userSpaceOnUse">
<stop stop-color="#00ADA1"/>
<stop offset="0.668269" stop-color="#00AD5B"/>
</linearGradient>
<linearGradient id="paint2_linear_5_21" x1="160.636" y1="405.835" x2="110.92" y2="229.503" gradientUnits="userSpaceOnUse">
<stop stop-color="#FFBE0C"/>
<stop offset="1" stop-color="#FFDD7F"/>
</linearGradient>
<linearGradient id="paint3_linear_5_21" x1="88.7335" y1="151.182" x2="91.2949" y2="473.058" gradientUnits="userSpaceOnUse">
<stop stop-color="#FBB016"/>
<stop offset="1" stop-color="#FF8FA7"/>
</linearGradient>
</defs>
</svg>
